<mxfile host="app.diagrams.net" modified="2023-02-21T11:35:40.973Z" agent="5.0 (Windows NT 10.0; Win64; x64) AppleWebKit/537.36 (KHTML, like Gecko) Chrome/110.0.0.0 Safari/537.36 Edg/110.0.1587.50" etag="KatB3CPDqBzt8fPoM3lj" version="20.8.21" type="github">
  <diagram name="Page-1" id="Lor-8H6tkds64roFFwCs">
    <mxGraphModel dx="926" dy="549" grid="1" gridSize="10" guides="1" tooltips="1" connect="1" arrows="1" fold="1" page="1" pageScale="1" pageWidth="850" pageHeight="1100" math="0" shadow="0">
      <root>
        <mxCell id="0" />
        <mxCell id="1" parent="0" />
        <mxCell id="fK5IZhhIRhRFnd4KpxjP-3" value="Use Case Diagram" style="swimlane;whiteSpace=wrap;html=1;" vertex="1" parent="1">
          <mxGeometry x="425" y="160" width="200" height="460" as="geometry">
            <mxRectangle x="310" y="160" width="140" height="30" as="alternateBounds" />
          </mxGeometry>
        </mxCell>
        <mxCell id="fK5IZhhIRhRFnd4KpxjP-14" value="Input Login Data" style="ellipse;whiteSpace=wrap;html=1;fontFamily=Helvetica;fontColor=none;" vertex="1" parent="fK5IZhhIRhRFnd4KpxjP-3">
          <mxGeometry x="35" y="120" width="110" height="40" as="geometry" />
        </mxCell>
        <mxCell id="fK5IZhhIRhRFnd4KpxjP-15" value="Menjalankan Bot" style="ellipse;whiteSpace=wrap;html=1;fontFamily=Helvetica;fontColor=none;" vertex="1" parent="fK5IZhhIRhRFnd4KpxjP-3">
          <mxGeometry x="35" y="170" width="110" height="40" as="geometry" />
        </mxCell>
        <mxCell id="fK5IZhhIRhRFnd4KpxjP-16" value="Typing Command" style="ellipse;whiteSpace=wrap;html=1;fontFamily=Helvetica;fontColor=none;" vertex="1" parent="fK5IZhhIRhRFnd4KpxjP-3">
          <mxGeometry x="35" y="70" width="110" height="40" as="geometry" />
        </mxCell>
        <mxCell id="fK5IZhhIRhRFnd4KpxjP-17" value="Validasi Info Login" style="ellipse;whiteSpace=wrap;html=1;fontFamily=Helvetica;fontColor=none;" vertex="1" parent="fK5IZhhIRhRFnd4KpxjP-3">
          <mxGeometry x="35" y="250" width="110" height="40" as="geometry" />
        </mxCell>
        <mxCell id="fK5IZhhIRhRFnd4KpxjP-18" value="Collecting Data" style="ellipse;whiteSpace=wrap;html=1;fontFamily=Helvetica;fontColor=none;" vertex="1" parent="fK5IZhhIRhRFnd4KpxjP-3">
          <mxGeometry x="35" y="300" width="110" height="40" as="geometry" />
        </mxCell>
        <mxCell id="fK5IZhhIRhRFnd4KpxjP-19" value="Menampilkan Hasil" style="ellipse;whiteSpace=wrap;html=1;fontFamily=Helvetica;fontColor=none;" vertex="1" parent="fK5IZhhIRhRFnd4KpxjP-3">
          <mxGeometry x="35" y="350" width="110" height="40" as="geometry" />
        </mxCell>
        <mxCell id="fK5IZhhIRhRFnd4KpxjP-5" value="Actor" style="shape=umlActor;verticalLabelPosition=bottom;verticalAlign=top;html=1;outlineConnect=0;fontFamily=Helvetica;fontColor=#fffafa;" vertex="1" parent="1">
          <mxGeometry x="270" y="340" width="30" height="60" as="geometry" />
        </mxCell>
        <mxCell id="fK5IZhhIRhRFnd4KpxjP-6" value="Actor" style="shape=umlActor;verticalLabelPosition=bottom;verticalAlign=top;html=1;outlineConnect=0;" vertex="1" parent="1">
          <mxGeometry x="480" y="670" width="30" height="60" as="geometry" />
        </mxCell>
        <mxCell id="fK5IZhhIRhRFnd4KpxjP-9" value="Actor" style="shape=umlActor;verticalLabelPosition=bottom;verticalAlign=top;outlineConnect=0;fontFamily=Helvetica;fontColor=none;noLabel=1;" vertex="1" parent="1">
          <mxGeometry x="700" y="340" width="30" height="60" as="geometry" />
        </mxCell>
        <mxCell id="fK5IZhhIRhRFnd4KpxjP-11" value="SISTEM BOT" style="text;html=1;align=center;verticalAlign=middle;resizable=0;points=[];autosize=1;strokeColor=none;fillColor=none;fontFamily=Helvetica;" vertex="1" parent="1">
          <mxGeometry x="230" y="410" width="100" height="30" as="geometry" />
        </mxCell>
        <mxCell id="fK5IZhhIRhRFnd4KpxjP-13" value="USER" style="text;html=1;align=center;verticalAlign=middle;resizable=0;points=[];autosize=1;strokeColor=none;fillColor=none;fontFamily=Helvetica;" vertex="1" parent="1">
          <mxGeometry x="685" y="410" width="60" height="30" as="geometry" />
        </mxCell>
        <mxCell id="fK5IZhhIRhRFnd4KpxjP-20" value="" style="endArrow=none;html=1;rounded=0;fontFamily=Helvetica;fontColor=none;entryX=0;entryY=0.5;entryDx=0;entryDy=0;" edge="1" parent="1" target="fK5IZhhIRhRFnd4KpxjP-17">
          <mxGeometry width="50" height="50" relative="1" as="geometry">
            <mxPoint x="300" y="380" as="sourcePoint" />
            <mxPoint x="330" y="370" as="targetPoint" />
          </mxGeometry>
        </mxCell>
        <mxCell id="fK5IZhhIRhRFnd4KpxjP-21" value="" style="endArrow=none;html=1;rounded=0;fontFamily=Helvetica;fontColor=none;entryX=0;entryY=0.5;entryDx=0;entryDy=0;" edge="1" parent="1" source="fK5IZhhIRhRFnd4KpxjP-5" target="fK5IZhhIRhRFnd4KpxjP-18">
          <mxGeometry width="50" height="50" relative="1" as="geometry">
            <mxPoint x="280" y="420" as="sourcePoint" />
            <mxPoint x="450" y="480" as="targetPoint" />
          </mxGeometry>
        </mxCell>
        <mxCell id="fK5IZhhIRhRFnd4KpxjP-22" value="" style="endArrow=none;html=1;rounded=0;fontFamily=Helvetica;fontColor=none;entryX=0;entryY=0.5;entryDx=0;entryDy=0;" edge="1" parent="1" target="fK5IZhhIRhRFnd4KpxjP-19">
          <mxGeometry width="50" height="50" relative="1" as="geometry">
            <mxPoint x="300" y="380" as="sourcePoint" />
            <mxPoint x="330" y="370" as="targetPoint" />
          </mxGeometry>
        </mxCell>
        <mxCell id="fK5IZhhIRhRFnd4KpxjP-23" value="" style="endArrow=none;html=1;rounded=0;fontFamily=Helvetica;fontColor=none;entryX=1;entryY=0.5;entryDx=0;entryDy=0;" edge="1" parent="1" target="fK5IZhhIRhRFnd4KpxjP-16">
          <mxGeometry width="50" height="50" relative="1" as="geometry">
            <mxPoint x="700" y="360" as="sourcePoint" />
            <mxPoint x="330" y="370" as="targetPoint" />
          </mxGeometry>
        </mxCell>
        <mxCell id="fK5IZhhIRhRFnd4KpxjP-24" value="" style="endArrow=none;html=1;rounded=0;fontFamily=Helvetica;fontColor=none;entryX=1;entryY=0.5;entryDx=0;entryDy=0;" edge="1" parent="1" source="fK5IZhhIRhRFnd4KpxjP-9" target="fK5IZhhIRhRFnd4KpxjP-14">
          <mxGeometry width="50" height="50" relative="1" as="geometry">
            <mxPoint x="280" y="420" as="sourcePoint" />
            <mxPoint x="330" y="370" as="targetPoint" />
          </mxGeometry>
        </mxCell>
        <mxCell id="fK5IZhhIRhRFnd4KpxjP-25" value="" style="endArrow=none;html=1;rounded=0;fontFamily=Helvetica;fontColor=none;entryX=1;entryY=0.5;entryDx=0;entryDy=0;" edge="1" parent="1" target="fK5IZhhIRhRFnd4KpxjP-15">
          <mxGeometry width="50" height="50" relative="1" as="geometry">
            <mxPoint x="700" y="360" as="sourcePoint" />
            <mxPoint x="330" y="370" as="targetPoint" />
          </mxGeometry>
        </mxCell>
      </root>
    </mxGraphModel>
  </diagram>
</mxfile>
